<?xml version="1.0" encoding="utf-8"?>
<!-- Svg Vector Icons : http://www.onlinewebfonts.com/icon -->
<!DOCTYPE svg PUBLIC "-//W3C//DTD SVG 1.1//EN" "http://www.w3.org/Graphics/SVG/1.1/DTD/svg11.dtd">
<svg version="1.1" xmlns="http://www.w3.org/2000/svg" xmlns:xlink="http://www.w3.org/1999/xlink" x="0px" y="0px" viewBox="0 0 1000 1000" enable-background="new 0 0 1000 1000" xml:space="preserve">
<metadata> Svg Vector Icons : http://www.onlinewebfonts.com/icon </metadata>
<g><g transform="translate(0.000000,512.000000) scale(0.100000,-0.100000)"><path d="M2912,5008c-320.3-47.9-471.8-136.2-822.7-477.5c-429.6-420-611.8-686.5-747.9-1093.1c-92.1-274.2-126.6-492.9-126.6-795.9c0-375.9,67.1-694.2,211-1014.5l59.5-128.5l-53.7-44.1c-28.8-24.9-195.6-163-370.1-306.8c-358.6-299.2-443-398.9-500.5-590.7c-63.3-203.3-46-408.5,46-594.5c65.2-130.4,134.2-205.2,1100.8-1167.9C2831.5-2327.4,2812.3-2310.1,3077-2352.3c130.4-21.1,316.4-1.9,427.7,44.1c32.6,13.4,847.6,475.6,1812.3,1026C6281.5-729.9,7081.2-275.4,7096.6-269.6c19.2,7.6,155.3-115.1,391.2-351L7850.2-983V20c0,550.4-5.7,1001.1-13.4,1001.1c-7.6,0-176.4-161.1-372-356.7l-358.6-356.7L5873,60.2c-677-136.1-1235-243.5-1238.9-239.7c-5.8,3.8,354.8,443,797.8,974.2l805.5,964.6l-841.9,843.8l-840,843.8l-187.9,441.1c-251.2,590.7-312.6,692.3-525.5,861.1C3579.4,4958.2,3226.5,5056,2912,5008z M3201.6,4194.9c153.4-46,216.7-126.6,370.1-489c74.8-172.6,136.2-324.1,136.2-335.6c0-17.3-1434.5-1225.4-1555.3-1309.8c-32.6-23-38.4-19.2-57.5,28.8c-101.6,260.8-130.4,642.4-67.1,895.6c72.9,303,249.3,586.8,579.2,930.1C2892.9,4214.1,2988.7,4258.2,3201.6,4194.9z"/><path d="M8933.7-731.8c-141.9-53.7-258.9-222.5-258.9-375.9c0-209.1,193.7-402.7,402.7-402.7c235.9,0,429.6,230.1,395,469.9c-15.3,99.7-105.5,230.1-197.5,283.8C9192.6-708.8,9029.6-697.3,8933.7-731.8z"/><path d="M8983.6-2354.2c-285.7-69-400.8-425.7-207.1-644.3c210.9-241.7,604.1-155.4,686.6,149.6C9539.7-2563.2,9271.2-2285.1,8983.6-2354.2z"/><path d="M8914.6-4016.9c-301.1-157.2-320.3-540.8-34.5-709.6c301.1-176.4,673.1,111.2,583,450.7c-26.8,97.8-117,203.3-214.8,255.1C9158.1-3976.6,8995.1-3972.8,8914.6-4016.9z"/></g></g>
</svg>